<svg width="64" height="64" viewBox="0 0 64 64" fill="none" xmlns="http://www.w3.org/2000/svg">
  <path d="M31.9998 58C31.9998 58 49 42.1366 49 28.25C49 18.7231 41.3888 11 31.9998 11C22.6109 11 15 18.7231 15 28.25C15 42.1366 31.9998 58 31.9998 58Z" fill="#FF3B30"/>
  <path d="M31.9999 35.5C36.004 35.5 39.25 32.2541 39.25 28.25C39.25 24.2459 36.004 21 31.9999 21C27.9958 21 24.7499 24.2459 24.7499 28.25C24.7499 32.2541 27.9958 35.5 31.9999 35.5Z" fill="white"/>
  <path d="M31.9999 32.5C34.3471 32.5 36.2499 30.5972 36.2499 28.25C36.2499 25.9028 34.3471 24 31.9999 24C29.6527 24 27.7499 25.9028 27.7499 28.25C27.7499 30.5972 29.6527 32.5 31.9999 32.5Z" fill="#FF3B30"/>
  <path d="M46.5 49L52.5 55" stroke="#4F46E5" stroke-width="5" stroke-linecap="round"/>
  <path d="M51.5 43.5C55.0899 43.5 58 40.5899 58 37C58 33.4101 55.0899 30.5 51.5 30.5C47.9101 30.5 45 33.4101 45 37C45 40.5899 47.9101 43.5 51.5 43.5Z" fill="#60A5FA"/>
</svg>
