<svg width="64" height="64" viewBox="0 0 64 64" fill="none" xmlns="http://www.w3.org/2000/svg">
  <defs>
    <linearGradient id="phoneBg" x1="14" y1="12" x2="52" y2="52" gradientUnits="userSpaceOnUse">
      <stop stop-color="#34D399"/>
      <stop offset="1" stop-color="#10B981"/>
    </linearGradient>
    <linearGradient id="phoneGlow" x1="20" y1="18" x2="44" y2="46" gradientUnits="userSpaceOnUse">
      <stop stop-color="white" stop-opacity="0.95"/>
      <stop offset="1" stop-color="white" stop-opacity="0.82"/>
    </linearGradient>
  </defs>
  <circle cx="32" cy="32" r="24" fill="url(#phoneBg)"/>
  <path d="M22.5 21.5C22.5 20.6716 23.1716 20 24 20H28.4582C29.1737 20 29.7907 20.5043 29.9333 21.2054L31.1884 27.3746C31.3041 27.9437 31.1002 28.5292 30.654 28.9041L27.9287 31.1943C29.6561 35.5428 33.1143 39.001 37.4627 40.7284L39.7529 38.0031C40.1279 37.5569 40.7134 37.353 41.2825 37.4687L47.4517 38.7238C48.1528 38.8664 48.6571 39.4834 48.6571 40.1989V44.6571C48.6571 45.4856 47.9855 46.1571 47.1571 46.1571H44.5C31.5213 46.1571 20.9999 35.6358 20.9999 22.6571V21.5H22.5Z" fill="url(#phoneGlow)"/>
  <path d="M24.5 19.5C24.5 18.6716 25.1716 18 26 18H29.4582C30.1737 18 30.7907 18.5043 30.9333 19.2054L32.1884 25.3746C32.3041 25.9437 32.1002 26.5292 31.654 26.9041L28.9287 29.1943C30.6561 33.5428 34.1143 37.001 38.4627 38.7284L40.7529 36.0031C41.1279 35.5569 41.7134 35.353 42.2825 35.4687L48.4517 36.7238C49.1528 36.8664 49.6571 37.4834 49.6571 38.1989V41.6571C49.6571 42.4856 48.9855 43.1571 48.1571 43.1571H45.5C32.5213 43.1571 21.9999 32.6358 21.9999 19.6571V19.5H24.5Z" fill="white"/>
  <ellipse cx="24.5" cy="21.5" rx="7.5" ry="5" fill="white" fill-opacity="0.18"/>
</svg>
