<svg width="64" height="64" viewBox="0 0 64 64" fill="none" xmlns="http://www.w3.org/2000/svg">
  <defs>
    <linearGradient id="aboutCover" x1="13" y1="12" x2="49" y2="55" gradientUnits="userSpaceOnUse">
      <stop stop-color="#ff3b3b"/>
      <stop offset=".5" stop-color="#e60012"/>
      <stop offset="1" stop-color="#9d0010"/>
    </linearGradient>
    <linearGradient id="aboutPage" x1="19" y1="17" x2="44" y2="49" gradientUnits="userSpaceOnUse">
      <stop stop-color="#ffffff"/>
      <stop offset="1" stop-color="#ffe7df"/>
    </linearGradient>
    <filter id="aboutShadow" x="4" y="8" width="56" height="54" filterUnits="userSpaceOnUse" color-interpolation-filters="sRGB">
      <feDropShadow dx="0" dy="5" stdDeviation="4" flood-color="#7f1d1d" flood-opacity=".24"/>
    </filter>
  </defs>
  <ellipse cx="32" cy="53" rx="19" ry="5" fill="#b91c1c" opacity=".16"/>
  <g filter="url(#aboutShadow)">
    <path d="M11 17.8c0-2.2 1.9-3.9 4.1-3.5 6.8 1.1 12.4 3.4 16.9 6.9v30.1c-4.5-3.2-10.1-5.4-16.8-6.6-2.4-.4-4.2-2.4-4.2-4.8V17.8Z" fill="url(#aboutCover)"/>
    <path d="M53 17.8c0-2.2-1.9-3.9-4.1-3.5-6.8 1.1-12.4 3.4-16.9 6.9v30.1c4.5-3.2 10.1-5.4 16.8-6.6 2.4-.4 4.2-2.4 4.2-4.8V17.8Z" fill="url(#aboutCover)"/>
    <path d="M16.6 20.5c5.2.9 9.3 2.6 12.5 5.2v17.8c-3.3-2.1-7.4-3.6-12.5-4.6V20.5Z" fill="url(#aboutPage)" opacity=".96"/>
    <path d="M47.4 20.5c-5.2.9-9.3 2.6-12.5 5.2v17.8c3.3-2.1 7.4-3.6 12.5-4.6V20.5Z" fill="url(#aboutPage)" opacity=".96"/>
    <path d="M32 20.7v30.6" stroke="#7f1d1d" stroke-opacity=".28" stroke-width="2" stroke-linecap="round"/>
    <path d="M16.5 15.6c5.9 1 10.8 2.8 14.4 5.6" stroke="#ffb4a8" stroke-width="2.2" stroke-linecap="round" opacity=".7"/>
    <path d="M36.1 23.6c3.1-1.8 6.7-3 10.9-3.7" stroke="#ffffff" stroke-width="2.1" stroke-linecap="round" opacity=".65"/>
  </g>
</svg>
